<svg width="28" height="29" viewBox="0 0 28 29" fill="none" xmlns="http://www.w3.org/2000/svg">
<path d="M15.1295 3.19099L24.0662 11.6809C24.6624 12.2472 25 13.0335 25 13.8559V22.4972C25 23.8779 23.8807 24.9972 22.5 24.9972H16.5C15.9477 24.9972 15.5 24.5495 15.5 23.9972V18.4971C15.5 17.6687 14.8284 16.9971 14 16.9971C13.1716 16.9971 12.5 17.6687 12.5 18.4971V23.9972C12.5 24.5495 12.0523 24.9972 11.5 24.9972H5.5C4.11929 24.9972 3 23.8779 3 22.4972V13.8559C3 13.0335 3.33756 12.2472 3.93375 11.6809L12.8705 3.19099C13.5034 2.58966 14.4966 2.58966 15.1295 3.19099ZM14 4.87654L5.31125 13.1309C5.11252 13.3196 5 13.5817 5 13.8559V22.4972C5 22.7734 5.22386 22.9972 5.5 22.9972H10.5V18.4971C10.5 16.5641 12.067 14.9971 14 14.9971C15.933 14.9971 17.5 16.5641 17.5 18.4971V22.9972H22.5C22.7761 22.9972 23 22.7734 23 22.4972V13.8559C23 13.5817 22.8875 13.3196 22.6887 13.1309L14 4.87654Z" fill="#2688EB"/>
</svg>
